# Blender 5.0.1
# www.blender.org
mtllib 9mm.mtl
o Circle
v -0.008687 -0.066144 -0.032419
v -0.033517 -0.066144 -0.001757
v -0.012028 -0.066144 0.031334
v 0.026083 -0.066144 0.021122
v 0.028148 -0.066144 -0.018280
v -0.007245 -0.050807 -0.027039
v -0.027955 -0.050807 -0.001465
v -0.010032 -0.050807 0.026134
v 0.021755 -0.050807 0.017617
v 0.023477 -0.050807 -0.015246
v -0.007245 -0.043160 -0.027039
v -0.027955 -0.043160 -0.001465
v -0.010032 -0.043160 0.026134
v 0.021755 -0.043160 0.017617
v 0.023477 -0.043160 -0.015246
v -0.008687 0.056226 -0.032419
v -0.033517 0.056226 -0.001757
v -0.012028 0.056226 0.031334
v 0.026083 0.056226 0.021122
v 0.028148 0.056226 -0.018280
v -0.033517 -0.051653 -0.001757
v -0.008687 -0.051653 -0.032419
v -0.012028 -0.051653 0.031334
v 0.026083 -0.051653 0.021122
v 0.028148 -0.051653 -0.018280
v -0.033517 -0.042314 -0.001757
v -0.008687 -0.042314 -0.032419
v -0.012028 -0.042314 0.031334
v 0.026083 -0.042314 0.021122
v 0.028148 -0.042314 -0.018280
vn -0.3584 -0.0000 0.9336
vn -0.2588 -0.0000 -0.9659
vn 0.7771 -0.0000 0.6293
vn -0.9986 -0.0000 -0.0523
vn 0.8387 -0.0000 -0.5446
vn -0.0000 -1.0000 -0.0000
vn 0.1434 -0.9828 0.1161
vn 0.1547 -0.9828 -0.1005
vn -0.0477 -0.9828 -0.1782
vn -0.1842 -0.9828 -0.0097
vn -0.0661 -0.9828 0.1722
vn 0.1434 0.9828 0.1161
vn 0.1547 0.9828 -0.1005
vn -0.0477 0.9828 -0.1782
vn -0.1842 0.9828 -0.0097
vn -0.0661 0.9828 0.1722
vn -0.0000 1.0000 -0.0000
vt 0.578698 0.216756
vt 0.545553 0.216756
vt 0.545553 0.250726
vt 0.578698 0.250726
vt 0.453189 0.216756
vt 0.429251 0.216756
vt 0.429251 0.250726
vt 0.453189 0.250726
vt 0.506820 0.216756
vt 0.506820 0.250726
vt 0.461406 0.252709
vt 0.441440 0.252709
vt 0.441440 0.270635
vt 0.461406 0.270635
vt 0.506137 0.252709
vt 0.566087 0.252709
vt 0.566087 0.270635
vt 0.506137 0.270635
vt 0.538442 0.252709
vt 0.538442 0.270635
vt 0.545553 0.272618
vt 0.453189 0.272618
vt 0.453189 0.503611
vt 0.545553 0.503611
vt 0.429251 0.272618
vt 0.506820 0.272618
vt 0.506820 0.503611
vt 0.429251 0.503611
vt 0.578698 0.272618
vt 0.578698 0.503611
vt 0.450949 0.560739
vt 0.456581 0.565376
vt 0.464936 0.563238
vt 0.464468 0.557280
vt 0.455823 0.555735
s 0
usemtl Material.001
f 1/1/1 5/2/1 25/3/1 22/4/1
f 4/5/2 3/6/2 23/7/2 24/8/2
f 2/9/3 1/1/3 22/4/3 21/10/3
f 5/2/4 4/5/4 24/8/4 25/3/4
f 3/6/5 2/9/5 21/10/5 23/7/5
f 9/11/2 8/12/2 13/13/2 14/14/2
f 7/15/3 6/16/3 11/17/3 12/18/3
f 10/19/4 9/11/4 14/14/4 15/20/4
f 8/12/5 7/15/5 12/18/5 13/13/5
f 6/16/1 10/19/1 15/20/1 11/17/1
f 30/21/4 29/22/4 19/23/4 20/24/4
f 28/25/5 26/26/5 17/27/5 18/28/5
f 27/29/1 30/21/1 20/24/1 16/30/1
f 29/22/2 28/25/2 18/28/2 19/23/2
f 26/26/3 27/29/3 16/30/3 17/27/3
f 17/31/6 16/32/6 20/33/6 19/34/6 18/35/6
f 6/16/7 7/15/7 21/10/7 22/4/7
f 7/15/8 8/12/8 23/7/8 21/10/8
f 8/12/9 9/11/9 24/8/9 23/7/9
f 9/11/10 10/19/10 25/3/10 24/8/10
f 10/19/11 6/16/11 22/4/11 25/3/11
f 12/18/12 11/17/12 27/29/12 26/26/12
f 13/13/13 12/18/13 26/26/13 28/25/13
f 14/14/14 13/13/14 28/25/14 29/22/14
f 15/20/15 14/14/15 29/22/15 30/21/15
f 11/17/16 15/20/16 30/21/16 27/29/16
f 2/9/17 3/6/17 4/5/17 5/2/17 1/1/17
