# Blender 5.0.1
# www.blender.org
mtllib buck.mtl
o Circle.002
v 0.000000 -0.130176 -0.046538
v -0.027354 -0.130176 -0.037650
v -0.044260 -0.130176 -0.014381
v -0.044260 -0.130176 0.014381
v -0.027354 -0.130176 0.037650
v 0.000000 -0.130176 0.046538
v 0.027354 -0.130176 0.037650
v 0.044260 -0.130176 0.014381
v 0.044260 -0.130176 -0.014381
v 0.027354 -0.130176 -0.037650
v 0.000000 -0.123293 -0.046538
v -0.027354 -0.123293 -0.037650
v -0.044260 -0.123293 -0.014381
v -0.044260 -0.123293 0.014381
v -0.027354 -0.123293 0.037650
v 0.000000 -0.123293 0.046538
v 0.027354 -0.123293 0.037650
v 0.044260 -0.123293 0.014381
v 0.044260 -0.123293 -0.014381
v 0.027354 -0.123293 -0.037650
v 0.000000 -0.117939 -0.041137
v -0.024179 -0.117939 -0.033280
v -0.039123 -0.117939 -0.012712
v -0.039123 -0.117939 0.012712
v -0.024179 -0.117939 0.033280
v 0.000000 -0.117939 0.041137
v 0.024179 -0.117939 0.033280
v 0.039123 -0.117939 0.012712
v 0.039123 -0.117939 -0.012712
v 0.024179 -0.117939 -0.033280
v 0.000000 -0.068227 -0.041137
v -0.024179 -0.068227 -0.033280
v -0.039123 -0.068227 -0.012712
v -0.039123 -0.068227 0.012712
v -0.024179 -0.068227 0.033280
v 0.000000 -0.068227 0.041137
v 0.024179 -0.068227 0.033280
v 0.039123 -0.068227 0.012712
v 0.039123 -0.068227 -0.012712
v 0.024179 -0.068227 -0.033280
v 0.000000 -0.068227 -0.039054
v -0.022955 -0.068227 -0.031595
v -0.037142 -0.068227 -0.012068
v -0.037142 -0.068227 0.012068
v -0.022955 -0.068227 0.031595
v 0.000000 -0.068227 0.039054
v 0.022955 -0.068227 0.031595
v 0.037142 -0.068227 0.012068
v 0.037142 -0.068227 -0.012068
v 0.022955 -0.068227 -0.031595
v 0.000000 0.118539 -0.039054
v -0.022955 0.118539 -0.031595
v -0.037142 0.118539 -0.012068
v -0.037142 0.118539 0.012068
v -0.022955 0.118539 0.031595
v 0.000000 0.118539 0.039054
v 0.022955 0.118539 0.031595
v 0.037142 0.118539 0.012068
v 0.037142 0.118539 -0.012068
v 0.022955 0.118539 -0.031595
vn 0.3090 -0.0000 -0.9511
vn 0.8090 -0.0000 0.5878
vn -0.8090 -0.0000 0.5878
vn -0.3090 -0.0000 -0.9511
vn 1.0000 -0.0000 -0.0000
vn -0.3090 -0.0000 0.9511
vn -0.8090 -0.0000 -0.5878
vn 0.8090 -0.0000 -0.5878
vn 0.3090 -0.0000 0.9511
vn -1.0000 -0.0000 -0.0000
vn 0.5837 -0.6924 0.4241
vn -0.5837 -0.6924 0.4241
vn -0.2230 -0.6924 -0.6862
vn 0.7215 -0.6924 -0.0000
vn -0.2230 -0.6924 0.6862
vn -0.5837 -0.6924 -0.4241
vn 0.5837 -0.6924 -0.4241
vn 0.2230 -0.6924 0.6862
vn -0.7215 -0.6924 -0.0000
vn 0.2230 -0.6924 -0.6862
vn -0.0000 -1.0000 -0.0000
vn -0.0000 1.0000 -0.0000
vt 0.426516 0.325619
vt 0.432788 0.309794
vt 0.440959 0.313032
vt 0.434686 0.328858
vt 0.469508 0.217149
vt 0.485929 0.175717
vt 0.494100 0.178956
vt 0.477678 0.220388
vt 0.449210 0.268362
vt 0.457380 0.271600
vt 0.492201 0.159892
vt 0.500372 0.163130
vt 0.497371 0.189256
vt 0.482855 0.225879
vt 0.444853 0.321759
vt 0.450398 0.307770
vt 0.464913 0.271147
vt 0.502915 0.175267
vt 0.541865 0.249267
vt 0.556381 0.212644
vt 0.503864 0.345147
vt 0.509408 0.331159
vt 0.523923 0.294536
vt 0.561925 0.198656
vt 0.000000 0.000000
vt 0.193953 0.333776
vt 0.164509 0.363174
vt 0.165558 0.752535
vt 0.189754 0.730487
vt 0.246456 0.324327
vt 0.296771 0.331676
vt 0.293621 0.715788
vt 0.242256 0.715788
vt 0.353521 0.362124
vt 0.333525 0.344276
vt 0.334575 0.728387
vt 0.365070 0.745186
vt 0.229163 0.813327
vt 0.266915 0.815909
vt 0.302567 0.809127
vt 0.331112 0.800173
vt 0.342661 0.788480
vt 0.323565 0.775326
vt 0.275314 0.764345
vt 0.223913 0.771126
vt 0.177519 0.786380
vt 0.195368 0.800173
vt 0.366627 0.144830
vt 0.338826 0.186469
vt 0.315909 0.262632
vt 0.338294 0.320104
vt 0.382454 0.325954
vt 0.429947 0.290521
vt 0.461082 0.215965
vt 0.461082 0.165636
vt 0.445364 0.130246
vt 0.404954 0.121064
s 0
usemtl Material.003
f 6/1/1 5/2/1 15/3/1 16/4/1
f 3/5/2 2/6/2 12/7/2 13/8/2
f 10/6/3 9/5/3 19/8/3 20/7/3
f 7/2/4 6/1/4 16/4/4 17/3/4
f 4/9/5 3/5/5 13/8/5 14/10/5
f 1/11/6 10/6/6 20/7/6 11/12/6
f 8/9/7 7/2/7 17/3/7 18/10/7
f 5/2/8 4/9/8 14/10/8 15/3/8
f 2/6/9 1/11/9 11/12/9 12/7/9
f 9/5/10 8/9/10 18/10/10 19/8/10
f 13/8/11 12/7/11 22/13/11 23/14/11
f 20/7/12 19/8/12 29/14/12 30/13/12
f 17/3/13 16/4/13 26/15/13 27/16/13
f 14/10/14 13/8/14 23/14/14 24/17/14
f 11/12/15 20/7/15 30/13/15 21/18/15
f 18/10/16 17/3/16 27/16/16 28/17/16
f 15/3/17 14/10/17 24/17/17 25/16/17
f 12/7/18 11/12/18 21/18/18 22/13/18
f 19/8/19 18/10/19 28/17/19 29/14/19
f 16/4/20 15/3/20 25/16/20 26/15/20
f 30/13/3 29/14/3 39/19/3 40/20/3
f 27/16/4 26/15/4 36/21/4 37/22/4
f 24/17/5 23/14/5 33/19/5 34/23/5
f 21/18/6 30/13/6 40/20/6 31/24/6
f 28/17/7 27/16/7 37/22/7 38/23/7
f 25/16/8 24/17/8 34/23/8 35/22/8
f 22/13/9 21/18/9 31/24/9 32/20/9
f 29/14/10 28/17/10 38/23/10 39/19/10
f 26/15/1 25/16/1 35/22/1 36/21/1
f 23/14/2 22/13/2 32/20/2 33/19/2
f 37/25/21 36/25/21 46/25/21 47/25/21
f 34/25/21 33/25/21 43/25/21 44/25/21
f 31/25/21 40/25/21 50/25/21 41/25/21
f 38/25/21 37/25/21 47/25/21 48/25/21
f 35/25/21 34/25/21 44/25/21 45/25/21
f 32/25/21 31/25/21 41/25/21 42/25/21
f 39/25/21 38/25/21 48/25/21 49/25/21
f 36/25/21 35/25/21 45/25/21 46/25/21
f 33/25/21 32/25/21 42/25/21 43/25/21
f 40/25/21 39/25/21 49/25/21 50/25/21
f 47/26/4 46/27/4 56/28/4 57/29/4
f 44/30/5 43/31/5 53/32/5 54/33/5
f 41/34/6 50/35/6 60/36/6 51/37/6
f 48/30/7 47/26/7 57/29/7 58/33/7
f 45/26/8 44/30/8 54/33/8 55/29/8
f 42/35/9 41/34/9 51/37/9 52/36/9
f 49/31/10 48/30/10 58/33/10 59/32/10
f 46/27/1 45/26/1 55/29/1 56/28/1
f 43/31/2 42/35/2 52/36/2 53/32/2
f 50/35/3 49/31/3 59/32/3 60/36/3
f 52/38/21 51/39/21 60/40/21 59/41/21 58/42/21 57/43/21 56/44/21 55/45/21 54/46/21 53/47/21
f 2/48/22 3/49/22 4/50/22 5/51/22 6/52/22 7/53/22 8/54/22 9/55/22 10/56/22 1/57/22
