# Blender 5.0.1
# www.blender.org
mtllib rifle.mtl
o Circle.001
v 0.000000 -0.126204 -0.034755
v -0.030098 -0.126204 -0.017377
v -0.030098 -0.126204 0.017377
v 0.000000 -0.126204 0.034755
v 0.030098 -0.126204 0.017377
v 0.030098 -0.126204 -0.017377
v 0.000000 -0.117943 -0.030345
v -0.026280 -0.117943 -0.015173
v -0.026280 -0.117943 0.015173
v 0.000000 -0.117943 0.030345
v 0.026280 -0.117943 0.015173
v 0.026280 -0.117943 -0.015173
v 0.000000 -0.110476 -0.030345
v -0.026280 -0.110476 -0.015173
v -0.026280 -0.110476 0.015173
v 0.000000 -0.110476 0.030345
v 0.026280 -0.110476 0.015173
v 0.026280 -0.110476 -0.015173
v 0.000000 0.064790 -0.034755
v -0.030098 0.064790 -0.017377
v -0.030098 0.064790 0.017377
v 0.000000 0.064790 0.034755
v 0.030098 0.064790 0.017377
v 0.030098 0.064790 -0.017377
v 0.000000 0.085516 -0.022802
v -0.019747 0.085516 -0.011401
v -0.019747 0.085516 0.011401
v 0.000000 0.085516 0.022802
v 0.019747 0.085516 0.011401
v 0.019747 0.085516 -0.011401
v 0.000000 0.116605 -0.022802
v -0.019747 0.116605 -0.011401
v -0.019747 0.116605 0.011401
v 0.000000 0.116605 0.022802
v 0.019747 0.116605 0.011401
v 0.019747 0.116605 -0.011401
v -0.030098 -0.120492 -0.017377
v 0.000000 -0.120492 -0.034755
v -0.030098 -0.120492 0.017377
v 0.000000 -0.120492 0.034755
v 0.030098 -0.120492 0.017377
v 0.030098 -0.120492 -0.017377
v -0.030098 -0.107927 -0.017377
v 0.000000 -0.107927 -0.034755
v -0.030098 -0.107927 0.017377
v 0.000000 -0.107927 0.034755
v 0.030098 -0.107927 0.017377
v 0.030098 -0.107927 -0.017377
vn -0.5000 -0.0000 0.8660
vn -0.5000 -0.0000 -0.8660
vn 1.0000 -0.0000 -0.0000
vn -1.0000 -0.0000 -0.0000
vn 0.5000 -0.0000 -0.8660
vn 0.5000 -0.0000 0.8660
vn -0.8946 -0.4468 -0.0000
vn 0.4473 -0.4468 -0.7748
vn 0.4473 -0.4468 0.7748
vn -0.4473 -0.4468 0.7748
vn -0.4473 -0.4468 -0.7748
vn 0.8946 -0.4468 -0.0000
vn -0.0000 -1.0000 -0.0000
vn -0.0000 1.0000 -0.0000
vn 0.2776 -0.8317 0.4809
vn 0.5553 -0.8317 -0.0000
vn 0.2776 -0.8317 -0.4809
vn -0.2776 -0.8317 -0.4809
vn -0.5553 -0.8317 -0.0000
vn -0.2776 -0.8317 0.4809
vn 0.2776 0.8317 0.4809
vn 0.5553 0.8317 -0.0000
vn 0.2776 0.8317 -0.4809
vn -0.2776 0.8317 -0.4809
vn -0.5553 0.8317 -0.0000
vn -0.2776 0.8317 0.4809
vt 0.557769 0.202609
vt 0.531365 0.202609
vt 0.531365 0.211288
vt 0.557769 0.211288
vt 0.478557 0.202609
vt 0.452152 0.202609
vt 0.452152 0.211288
vt 0.478557 0.211288
vt 0.528015 0.215162
vt 0.481906 0.215162
vt 0.481906 0.226507
vt 0.528015 0.226507
vt 0.458852 0.215162
vt 0.458852 0.226507
vt 0.551070 0.215162
vt 0.551070 0.226507
vt 0.557769 0.230381
vt 0.531365 0.230381
vt 0.531365 0.492819
vt 0.557769 0.492819
vt 0.478557 0.230381
vt 0.452152 0.230381
vt 0.452152 0.492819
vt 0.478557 0.492819
vt 0.487637 0.524312
vt 0.522284 0.524312
vt 0.470314 0.524312
vt 0.539608 0.524312
vt 0.522284 0.571551
vt 0.539608 0.571551
vt 0.470314 0.571551
vt 0.487637 0.571551
vt 0.452813 0.562875
vt 0.458418 0.565032
vt 0.464024 0.562875
vt 0.464024 0.558560
vt 0.458418 0.556403
vt 0.452813 0.558560
s 0
usemtl Material.002
f 1/1/1 6/2/1 42/3/1 38/4/1
f 5/5/2 4/6/2 40/7/2 41/8/2
f 3/5/3 2/2/3 37/3/3 39/8/3
f 6/2/4 5/5/4 41/8/4 42/3/4
f 4/6/5 3/5/5 39/8/5 40/7/5
f 2/2/6 1/1/6 38/4/6 37/3/6
f 12/9/4 11/10/4 17/11/4 18/12/4
f 10/13/5 9/10/5 15/11/5 16/14/5
f 8/9/6 7/15/6 13/16/6 14/12/6
f 7/15/1 12/9/1 18/12/1 13/16/1
f 11/10/2 10/13/2 16/14/2 17/11/2
f 9/10/3 8/9/3 14/12/3 15/11/3
f 44/17/1 48/18/1 24/19/1 19/20/1
f 47/21/2 46/22/2 22/23/2 23/24/2
f 45/21/3 43/18/3 20/19/3 21/24/3
f 48/18/4 47/21/4 23/24/4 24/19/4
f 46/22/5 45/21/5 21/24/5 22/23/5
f 43/18/6 44/17/6 19/20/6 20/19/6
f 24/19/7 23/24/7 29/25/7 30/26/7
f 22/23/8 21/24/8 27/25/8 28/27/8
f 20/19/9 19/20/9 25/28/9 26/26/9
f 19/20/10 24/19/10 30/26/10 25/28/10
f 23/24/11 22/23/11 28/27/11 29/25/11
f 21/24/12 20/19/12 26/26/12 27/25/12
f 25/28/1 30/26/1 36/29/1 31/30/1
f 29/25/2 28/27/2 34/31/2 35/32/2
f 27/25/3 26/26/3 32/29/3 33/32/3
f 30/26/4 29/25/4 35/32/4 36/29/4
f 28/27/5 27/25/5 33/32/5 34/31/5
f 26/26/6 25/28/6 31/30/6 32/29/6
f 32/33/13 31/34/13 36/35/13 35/36/13 34/37/13 33/38/13
f 2/2/14 3/5/14 4/6/14 5/5/14 6/2/14 1/1/14
f 7/15/15 8/9/15 37/3/15 38/4/15
f 8/9/16 9/10/16 39/8/16 37/3/16
f 9/10/17 10/13/17 40/7/17 39/8/17
f 10/13/18 11/10/18 41/8/18 40/7/18
f 11/10/19 12/9/19 42/3/19 41/8/19
f 12/9/20 7/15/20 38/4/20 42/3/20
f 14/12/21 13/16/21 44/17/21 43/18/21
f 15/11/22 14/12/22 43/18/22 45/21/22
f 16/14/23 15/11/23 45/21/23 46/22/23
f 17/11/24 16/14/24 46/22/24 47/21/24
f 18/12/25 17/11/25 47/21/25 48/18/25
f 13/16/26 18/12/26 48/18/26 44/17/26
